<svg class="icon" viewBox="0 0 1024 1024" xmlns="http://www.w3.org/2000/svg" width="200" height="200"><defs><style>@font-face{font-family:element-icons;src:url(chrome-extension://moombeodfomdpjnpocobemoiaemednkg/fonts/element-icons.woff) format(&quot;woff&quot;),url(&quot;chrome-extension://moombeodfomdpjnpocobemoiaemednkg/fonts/element-icons.ttf &quot;) format(&quot;truetype&quot;)}</style></defs><path d="M877.44 273.707L647.893 44.16c-6.4-6.4-15.04-10.027-24.106-10.027h-453.12c-18.88 0-34.134 15.254-34.134 34.134v887.466c0 18.88 15.254 34.134 34.134 34.134h682.666c18.88 0 34.134-15.254 34.134-34.134V297.92a34.32 34.32 0 00-10.027-24.213zM808.747 313.6H608V112.853L808.747 313.6zm1.92 599.467H213.333V110.933h322.134v230.4c0 24.747 20.053 44.8 44.8 44.8h230.4v526.934z"/></svg>