<svg class="icon" viewBox="0 0 1024 1024" xmlns="http://www.w3.org/2000/svg" width="200" height="200"><defs><style/></defs><path d="M985.6 548.267c-8.533 8.533-21.333 8.533-29.867 0L864 456.533v450.134c0 17.066-14.933 32-32 32H192c-17.067 0-32-14.934-32-32 0-4.267 2.133-6.4 2.133-8.534C160 893.867 160 889.6 160 885.333v-428.8l-91.733 91.734c-8.534 8.533-21.334 8.533-29.867 0-8.533-8.534-8.533-21.334 0-29.867l448-448c6.4-6.4 17.067-8.533 25.6-4.267 8.533-4.266 19.2-4.266 25.6 2.134l448 448c8.533 10.666 8.533 23.466 0 32zm-356.267 70.4C622.933 558.933 573.867 512 512 512s-110.933 46.933-115.2 106.667h-2.133V896h234.666V618.667z"/></svg>