<svg class="icon" viewBox="0 0 1024 1024" xmlns="http://www.w3.org/2000/svg" width="200" height="200"><defs><style/></defs><path d="M400.572 437h514.285c4.715 0 8.571-3.857 8.571-8.572v-60c0-4.713-3.856-8.571-8.571-8.571H400.572c-4.715 0-8.572 3.858-8.572 8.571v60c0 4.715 3.857 8.572 8.572 8.572zM392 655.572c0 4.713 3.857 8.571 8.572 8.571h514.285c4.715 0 8.571-3.858 8.571-8.571v-60c0-4.715-3.856-8.572-8.571-8.572H400.572c-4.715 0-8.572 3.857-8.572 8.572v60zm540-520.715H92c-4.715 0-8.572 3.858-8.572 8.571v60c0 4.715 3.857 8.572 8.572 8.572h840c4.715 0 8.572-3.857 8.572-8.572v-60c0-4.713-3.857-8.571-8.572-8.571zM932 812H92c-4.715 0-8.572 3.857-8.572 8.572v60c0 4.713 3.857 8.571 8.572 8.571h840c4.715 0 8.572-3.858 8.572-8.571v-60c0-4.715-3.857-8.572-8.572-8.572zM116 651.393L283.465 519.5a9.472 9.472 0 000-14.893L116 372.607c-6.215-4.929-15.428-.535-15.428 7.393v263.893a9.535 9.535 0 0015.428 7.5z"/></svg>