<svg class="icon" viewBox="0 0 1167 1024" xmlns="http://www.w3.org/2000/svg" width="227.93" height="200"><defs><style/></defs><path d="M62.014 127.443a2.01 2.01 0 10128.176 0 2.01 2.01 0 10-128.176 0zm256.38-64.104h769.115v128.178H318.395zm0 320.484a2.01 2.01 0 10128.178 0 2.01 2.01 0 10-128.177 0zm256.382-64.102h512.732v128.176H574.776zM318.395 896.557a2.01 2.01 0 10128.177 0 2.01 2.01 0 10-128.177 0zm256.38-64.074h512.733V960.66H574.776zm0-192.307a2.01 2.01 0 10128.177 0 2.01 2.01 0 10-128.176 0zm256.381-64.074h256.353v128.176H831.157z"/></svg>