<svg class="icon" viewBox="0 0 1024 1024" xmlns="http://www.w3.org/2000/svg" width="200" height="200"><defs><style/></defs><path d="M846.06 390.907h-73.875v-95.505a260.962 260.962 0 10-521.901 0v95.505h-73.83A64.522 64.522 0 00112 455.52v471.8A64.545 64.545 0 00176.453 992H846.13a64.499 64.499 0 0064.408-64.681V455.52a64.522 64.522 0 00-64.476-64.613zM547.5 703.728V806.74a8.533 8.533 0 01-8.465 8.488h-55.396a8.556 8.556 0 01-8.533-8.488V703.73a80.196 80.196 0 1172.393 0zm124.57-312.821H350.535v-91.261a160.78 160.78 0 11321.537 0v91.261z"/></svg>