<svg class="icon" viewBox="0 0 1024 1024" xmlns="http://www.w3.org/2000/svg" width="200" height="200"><defs><style/></defs><path d="M263.253 267.093a248.747 248.747 0 00497.494 0A249.6 249.6 0 00336.213 93.867a244.053 244.053 0 00-72.96 173.226zM738.987 565.76h-20.48a58.453 58.453 0 00-24.32 5.973c-7.68 3.84-16.64 9.387-31.574 15.787a396.373 396.373 0 01-149.333 29.44 378.453 378.453 0 01-148.907-29.44c-14.933-6.4-32-15.787-32-15.787a52.48 52.48 0 00-24.32-5.973H286.72A256 256 0 0094.293 722.773 407.467 407.467 0 0064.427 876.8a49.92 49.92 0 0024.746 37.547c14.08 7.68 139.52 87.466 422.827 87.466s422.827-87.466 422.827-87.466a49.92 49.92 0 0024.746-37.974 401.92 401.92 0 00-28.586-151.04 256 256 0 00-192-160.426zm0 0"/></svg>