<svg class="icon" width="200" height="200" viewBox="0 0 1024 1024" xmlns="http://www.w3.org/2000/svg"><path d="M716.8 921.6H608.53l-77.347-224.256h-315.87L142.268 921.6H34.133l288.905-819.2h104.79L716.8 921.6zM500.736 604.774L386.185 264.192c-3.619-10.854-7.51-29.97-11.742-57.07h-2.458c-3.618 24.712-7.714 43.69-12.22 57.07L246.101 604.774h254.635zm249.173 5.871c33.792-20.275 72.84-30.378 117.01-30.378 81.92 0 122.88 41.233 122.88 123.767v209.852h-59.597v-50.38H928.7C905.148 902.28 870.468 921.6 824.593 921.6c-33.041 0-59.187-8.533-78.643-25.668-19.456-17.067-29.218-40.21-29.218-69.223 0-61.03 37.615-96.392 112.708-106.496l100.762-13.516c0-53.248-22.938-79.872-68.813-79.872-40.755 0-77.892 13.107-111.48 39.458v-55.638zm100.762 150.05c-27.853 3.55-47.036 10.172-57.617 20.07-10.581 9.831-15.77 23.553-15.77 41.234 0 15.496 5.735 28.126 17.203 38.024 11.47 9.83 26.624 14.746 45.398 14.746 26.282 0 47.855-8.875 64.853-26.556 16.93-17.68 25.464-39.867 25.464-66.628V750.32l-79.531 10.376z"/></svg>