<svg class="icon" width="200" height="200" viewBox="0 0 1024 1024" xmlns="http://www.w3.org/2000/svg"><path d="M181.61 426.624h149.803l80.64 253.29-230.442-253.29zm430.358 253.27l80.64-253.291h149.76l-230.4 253.29zm-28.33-338.625H440.362L512 228.78l71.637 112.512zM746.282 192l108.736 149.333H684.843L589.78 192h156.502zm-468.608 0h156.544l-95.062 149.333H168.96L277.675 192zm143.338 234.645h181.974L512 712.491l-90.987-285.867zM544.94 880.448l425.429-467.627c2.752-3.05 4.992-6.464 6.784-10.133.96-1.92 1.45-3.904 2.09-5.867.555-1.749 1.195-3.456 1.537-5.269.362-1.941.384-3.883.426-5.845.128-2.07.214-4.054 0-6.144-.213-1.707-.64-3.307-1.002-4.971a38.101 38.101 0 00-1.856-6.379c-.79-2.026-1.92-3.861-3.03-5.738-.704-1.174-1.066-2.454-1.92-3.606L805.931 128.96c-5.419-10.987-15.638-19.477-30.614-21.59-1.237-.213-2.453-.234-3.69-.34-1.195-.086-2.24-.342-3.499-.342H255.872c-1.216 0-2.24.256-3.392.341-1.301.107-2.603.128-3.904.363-14.805 2.133-24.96 10.496-30.443 21.333L50.603 358.827c-.854 1.152-1.216 2.432-1.92 3.626-1.11 1.856-2.24 3.691-3.03 5.718a37.76 37.76 0 00-1.856 6.4c-.384 1.642-.81 3.242-1.002 4.949-.214 2.09-.128 4.053 0 6.144.042 1.984.085 3.904.426 5.845.342 1.814.982 3.52 1.536 5.27.64 1.962 1.131 3.946 2.091 5.866 1.792 3.67 4.053 7.083 6.784 10.134l425.43 467.626a43.978 43.978 0 006.506 6.251c7.339 5.995 15.573 8.81 23.787 9.237.874.086 1.77.086 2.645.086.896 0 1.77 0 2.645-.086 8.214-.426 16.47-3.264 23.787-9.237a43.978 43.978 0 006.507-6.25z"/></svg>