<svg class="icon" width="200" height="177.78" viewBox="0 0 1152 1024" xmlns="http://www.w3.org/2000/svg"><path d="M578 978.8l-72-66c-108.78-98.4-184.02-168.78-225.6-211.2-67.98-68.82-117.18-130.02-147.6-183.6-36-60.78-54-121.62-54-182.4 0-50.4 12.18-96.6 36.6-138.6s57.42-75 99-99 88.02-36 139.2-36c42.42 0 83.58 9.6 123.6 28.8 40.02 19.2 73.62 44.82 100.8 76.8a301.68 301.68 0 01100.8-76.8C718.82 71.6 760.4 62 803.6 62c50.4 0 96.6 12 138.6 36s75 57 99 99 36 88.2 36 138.6c0 60.78-17.58 121.98-52.8 183.6-31.2 53.58-80.82 114.78-148.8 183.6-42.42 43.98-117.18 114.78-224.4 212.4L578 978.8z"/></svg>