<svg class="icon" viewBox="0 0 1024 1024" xmlns="http://www.w3.org/2000/svg" width="200" height="200"><path d="M512 42.667a464.64 464.64 0 00-469.333 459.52 460.373 460.373 0 00320.853 436.48c23.467 4.266 32-9.814 32-22.187V838.4c-130.56 27.733-158.293-61.44-158.293-61.44a122.027 122.027 0 00-52.054-67.413c-42.666-28.16 3.414-27.734 3.414-27.734a98.56 98.56 0 0171.68 47.36A101.12 101.12 0 00396.8 767.147a99.413 99.413 0 0129.867-61.44c-104.107-11.52-213.334-50.774-213.334-226.987a177.067 177.067 0 0147.36-124.16 161.28 161.28 0 014.694-121.173s39.68-12.374 128 46.933a455.68 455.68 0 01234.666 0c89.6-59.307 128-46.933 128-46.933a161.28 161.28 0 014.694 121.173 177.067 177.067 0 0149.92 123.307c0 176.64-110.08 215.466-213.334 226.986a106.667 106.667 0 0132 85.334v125.866c0 14.934 8.534 26.88 32 22.187a460.8 460.8 0 00320-436.053A464.64 464.64 0 00512 42.667"/></svg>