<svg class="icon" width="200" height="200" viewBox="0 0 1024 1024" xmlns="http://www.w3.org/2000/svg"><path d="M764 364.419H656v-40.21c0-67.79-18.61-181.218-144-181.218-130.19 0-144 126.609-144 181.218v40.21H260v-40.21C260 146.61 358.99 32 512 32s252 114.61 252 292.21v40.209zM584 659.58c0-40.8-32.419-73.734-72-73.734s-72 32.934-72 73.734c0 27.619 14.438 51.066 36.038 63.581V807.2c0 20.381 16.171 37.219 36 37.219s36-16.838 36-37.219v-84.038C569.6 710.647 584 687.2 584 659.582zM872 512v369.01C872 942.19 823.372 992 764 992H260c-59.335 0-108-49.81-108-110.99V512c0-61.144 48.628-110.99 108-110.99h504c59.372 0 108 49.846 108 110.99z"/></svg>