<svg class="icon" width="200" height="200" viewBox="0 0 1024 1024" xmlns="http://www.w3.org/2000/svg"><path d="M931.52 683.84c-6.72-92.16-68.16-168.96-102.72-208.32 4.8-11.52 17.28-78.72-28.8-123.84v-2.88c-.96-181.44-128.64-311.04-288-312-159.36.96-287.04 130.56-287.04 311.04v2.88c-46.08 46.08-34.56 112.32-28.8 123.84-35.52 40.32-96.96 117.12-103.68 209.28-.96 24 2.88 59.52 14.4 74.88 14.4 19.2 53.76-3.84 81.6-64.32 7.68 27.84 25.92 71.04 66.24 125.76-68.16 15.36-87.36 83.52-64.32 120 16.32 25.92 52.8 47.04 117.12 47.04 113.28 0 163.2-30.72 185.28-51.84 4.8-4.8 11.52-6.72 19.2-6.72 8.64 0 15.36 1.92 19.2 6.72 22.08 21.12 72 51.84 185.28 51.84 63.36 0 100.8-21.12 117.12-47.04 23.04-37.44 3.84-104.64-64.32-120 40.32-54.72 58.56-97.92 66.24-125.76 27.84 60.48 67.2 83.52 81.6 64.32 11.52-16.32 15.36-50.88 14.4-74.88z"/></svg>