<svg class="icon" width="200" height="200" viewBox="0 0 1024 1024" xmlns="http://www.w3.org/2000/svg"><path d="M947.015 861.712L732.912 647.51c-2.535-2.535-5.27-4.375-7.853-6.413 36.138-55.476 57.216-121.59 57.216-192.876 0-195.659-158.526-354.185-354.235-354.185-195.56 0-354.236 158.526-354.236 354.185 0 195.71 158.675 354.236 354.235 354.236 71.185 0 137.4-21.177 192.975-57.366 2.04 2.734 3.878 5.32 6.363 7.855L841.53 967.148c14.564 14.564 33.654 21.772 52.741 21.772s38.13-7.208 52.744-21.772c29.03-29.131 29.03-76.306 0-105.436M428.09 690.658c-133.622 0-242.338-108.765-242.338-242.386S294.518 205.935 428.09 205.935 670.476 314.7 670.476 448.272 561.66 690.658 428.09 690.658"/></svg>