<svg class="icon" width="200" height="200" viewBox="0 0 1024 1024" xmlns="http://www.w3.org/2000/svg"><path d="M535.063 611.281c-16.97-32.343-44.907-53.531-84.75-64.125-37.5-10.031-75.188-6.375-112.688 10.125-37.125 16.407-64.031 41.344-80.906 74.719-16.969 34.031-18 67.313-3.75 100.688 14.25 32.906 40.781 55.687 78.844 67.875 39.656 13.312 79.875 11.156 120.093-6.282 40.219-16.968 68.813-43.968 84.75-80.625 16.407-36.093 15.938-69.937-1.593-102.375zM393.219 721.156c-7.969 12.188-19.125 20.719-33.844 25.969-14.25 4.688-27.563 4.219-39.656-1.594-12.094-5.906-20.063-14.812-23.25-27-3.188-12.75-1.031-24.843 6.844-37.125 7.406-12.187 18.562-20.156 32.25-24.843 12.656-4.594 26.625-4.407 39.093.562 12.656 5.25 20.719 14.344 24.375 27 3.75 12.563 1.594 24.75-5.812 37.031zm50.344-65.25c-2.344 5.063-6.844 8.907-12.188 10.594-5.063 1.594-10.406 1.594-15.375 0-10.5-5.25-12.656-13.313-6.844-24.375 5.344-9.469 16.594-13.875 27-10.594 4.5 1.782 8.063 5.438 9.563 10.125 1.594 4.594.469 9.469-2.156 14.25zm406.968-89.625c-12.093-19.125-26.437-33.468-42.843-43.968-17.157-10.97-35.625-19.407-55.032-25.407-4.218-1.594-7.406-2.719-9-3.187-2.156-1.313-4.312-2.719-6.375-4.313-2.718-2.156-3.75-4.312-2.718-6.844 1.5-3.28 2.343-6.937 2.718-10.593 15.844-41.438 15.844-73.125 0-96-16.406-21.75-43.968-32.906-81.937-32.906-38.063 0-82.032 10.593-131.813 31.875l-3.187 1.03c-2.344 1.032-4.782 1.688-7.407 2.157-2.53.938-5.25 1.219-7.968.563-2.25-.188-4.313-1.594-5.25-3.75-1.031-2.157-1.031-5.907.562-10.594 16.406-52.031 12.656-89.625-10.5-112.406-25.969-26.532-70.312-27.563-131.812-3.75-62.063 24.468-122.906 66.843-183.281 127.312-45.282 46.031-80.813 92.156-105.657 138.844C44.094 561.125 32 605.094 32 646.344c0 38.718 11.719 74.156 34.969 107.625 23.25 32.906 53.906 59.906 92.062 81.187 37.5 21.188 80.906 37.594 128.531 49.875 48.188 12.094 97.594 18.188 147.188 18 50.25-.562 99-5.906 144.938-16.968 46.5-11.157 86.718-25.97 121.125-44.532 32.625-17.25 63-38.343 90.468-63 25.407-23.343 45-48.281 58.219-73.781 13.219-25.969 19.594-50.906 19.594-75.281 0-22.594-6.469-44.438-18.563-63.188zM632.938 770.47C580.53 813.5 514.343 838.344 435.125 846.78c-52.406 5.25-101.156 1.594-147.094-11.156-46.031-12.75-83.062-32.344-111.656-58.875-28.5-26.438-44.531-57.281-47.625-91.781-5.25-52.5 18.563-100.219 70.875-142.594 52.406-43.031 118.594-67.875 197.813-76.313 52.406-5.25 101.156-1.593 147.093 10.594 46.032 12.75 83.063 32.344 111.657 58.875 28.5 26.532 44.53 57.282 47.625 91.782 5.437 52.406-18.375 100.125-70.875 143.156zM829.343 293.75c14.812 16.969 24.843 36.563 29.062 58.313 4.219 21.75 3.188 43.03-3.75 63-2.718 8.437-7.968 14.343-15.843 18.562-7.97 3.75-15.844 4.781-23.813 2.156-8.063-2.344-14.719-8.156-18-15.844-3.75-7.968-4.688-15.843-2.156-23.906 6.843-22.875 2.718-42.469-12.657-59.906C766.345 319.156 747.22 312.781 725 317a33.24 33.24 0 01-24.375-4.219c-7.406-4.781-12.188-11.156-13.219-20.156-1.593-8.438-.562-16.406 4.313-23.906 4.687-7.5 11.156-12.188 19.593-13.875 43.5-9.094 88.5 5.719 118.032 38.906zm96.937-88.031c30.844 33.562 51.657 75.094 60.375 119.906 9 45.563 6.844 88.594-7.406 129.938-3 9.187-9.469 17.062-18 21.75-9 4.687-18 5.25-28.125 2.156-9.375-3-17.063-9.656-21.094-18.563-4.687-9-5.25-18-2.718-28.125 10.03-29.156 11.718-60.469 5.25-92.719-6.094-31.78-20.907-61.125-42.844-84.843-22.219-24.844-48.657-41.906-79.313-51.469-29.906-9.563-61.875-11.156-92.625-4.781-9.656 2.25-19.875.281-28.125-5.25-8.437-5.25-13.687-13.313-15.843-23.344-2.157-10.031-.563-19.125 5.25-27.563a34.749 34.749 0 0123.343-15.937c43.969-9.563 87.282-7.406 130.688 6.281 42.843 13.688 79.875 37.594 111.187 72.563z"/></svg>