<svg class="icon" width="200" height="160" viewBox="0 0 1280 1024" xmlns="http://www.w3.org/2000/svg"><path d="M867.2 329.6h19.2C852.8 161.6 675.2 32 459.2 32 224 32 32 190.4 32 382.4c0 115.2 67.2 216 168 278.4l4.8 4.8-43.2 124.8L320 708.8h9.6C372.8 718.4 416 728 464 728h28.8c-9.6-28.8-14.4-52.8-14.4-81.6-4.8-177.6 172.8-316.8 388.8-316.8zM608 204.8c33.6 0 62.4 24 62.4 57.6S641.6 320 608 320s-62.4-24-62.4-57.6 28.8-57.6 62.4-57.6zM310.4 320c-33.6 0-57.6-28.8-57.6-57.6 0-33.6 28.8-57.6 62.4-57.6 33.6 0 62.4 24 62.4 57.6S344 320 310.4 320zM1232 646.4c0-163.2-163.2-292.8-360-292.8S512 488 512 646.4s163.2 292.8 360 292.8c38.4 0 76.8-4.8 115.2-14.4h4.8l129.6 67.2-33.6-105.6h4.8c81.6-57.6 139.2-144 139.2-240zm-489.6-52.8c-28.8 0-52.8-19.2-52.8-48s24-48 52.8-48c28.8 0 52.8 19.2 52.8 48s-24 48-52.8 48zm254.4 0c-28.8 0-52.8-19.2-52.8-48s24-48 52.8-48 52.8 19.2 52.8 48-24 48-52.8 48z"/></svg>